<?xml version="1.0" encoding="UTF-8" standalone="no"?>
<svg
   xmlns:dc="http://purl.org/dc/elements/1.1/"
   xmlns:cc="http://creativecommons.org/ns#"
   xmlns:rdf="http://www.w3.org/1999/02/22-rdf-syntax-ns#"
   xmlns:svg="http://www.w3.org/2000/svg"
   xmlns="http://www.w3.org/2000/svg"
   viewBox="0 0 663.46667 788.30664"
   height="788.30664"
   width="663.46667"
   xml:space="preserve"
   id="svg2"
   version="1.1"><metadata
     id="metadata8"><rdf:RDF><cc:Work
         rdf:about=""><dc:format>image/svg+xml</dc:format><dc:type
           rdf:resource="http://purl.org/dc/dcmitype/StillImage" /></cc:Work></rdf:RDF></metadata><defs
     id="defs6" /><g
     transform="matrix(1.3333333,0,0,-1.3333333,0,788.30667)"
     id="g10"><g
       transform="scale(0.1)"
       id="g12"><path
         id="path14"
         style="fill:none;stroke:#1a1817;stroke-width:7.5;stroke-linecap:round;stroke-linejoin:round;stroke-miterlimit:4;stroke-dasharray:none;stroke-opacity:1"
         d="m 4208.98,4661.71 c 0,-0.08 0.02,-0.16 0.02,-0.24" /><path
         id="path16"
         style="fill:none;stroke:#1a1817;stroke-width:7.5;stroke-linecap:round;stroke-linejoin:round;stroke-miterlimit:4;stroke-dasharray:none;stroke-opacity:1"
         d="m 4190.32,2432.52 -0.02,-0.02 c -0.02,-0.02 -0.02,-0.02 -0.02,-0.02" /><path
         id="path18"
         style="fill:none;stroke:#1a1817;stroke-width:7.5;stroke-linecap:round;stroke-linejoin:round;stroke-miterlimit:4;stroke-dasharray:none;stroke-opacity:1"
         d="m 4158.08,2390.75 0.02,0.02" /><path
         id="path20"
         style="fill:none;stroke:#1a1817;stroke-width:7.5;stroke-linecap:round;stroke-linejoin:round;stroke-miterlimit:4;stroke-dasharray:none;stroke-opacity:1"
         d="m 4189.63,2431.63 v -0.02" /><path
         id="path22"
         style="fill:none;stroke:#1a1817;stroke-width:7.5;stroke-linecap:round;stroke-linejoin:round;stroke-miterlimit:4;stroke-dasharray:none;stroke-opacity:1"
         d="m 4189.95,2432.04 v -0.02" /><path
         id="path24"
         style="fill:none;stroke:#1a1817;stroke-width:7.5;stroke-linecap:round;stroke-linejoin:round;stroke-miterlimit:4;stroke-dasharray:none;stroke-opacity:1"
         d="m 4190.07,2432.2 v -0.02" /><path
         id="path26"
         style="fill:#1a1817;fill-opacity:1;fill-rule:nonzero;stroke:none"
         d="m 4910.72,3352.41 c -0.86,-28.6 -2.35,-57.16 -4.18,-85.7 -3.58,-55.77 -9.35,-111.4 -16.65,-166.77 -1.08,-7.7 -2.17,-15.39 -3.32,-23.05 -4.01,-0.14 -8.01,-0.26 -12.04,-0.38 -2.23,2.67 -5.58,4.38 -9.27,4.42 -10.87,0.11 -21.74,-0.18 -32.62,-0.32 -5.89,-0.07 -11.78,-0.11 -17.66,-0.13 -0.02,0 -0.04,0 -0.06,0 -2.25,0 -4.51,-0.02 -6.74,-0.02 -31.22,-0.04 -62.45,0.35 -93.65,1.27 -17.24,0.49 -34.51,1.2 -51.75,2.04 -5.98,0.3 -11.96,0.61 -17.94,0.94 -1.54,0.36 -3.12,0.53 -4.71,0.53 -0.75,0 -1.5,-0.04 -2.28,-0.13 -0.06,0.02 -0.13,0.02 -0.19,0.02 -2.89,0.17 -5.75,0.31 -8.64,0.43 -1.65,7.43 -3.53,14.82 -5.29,22.22 -0.65,2.71 -1.3,5.42 -1.95,8.13 0.09,1.49 -0.02,3 -0.53,4.48 -0.64,1.9 -1.26,3.81 -1.9,5.72 -1.93,8.08 -3.83,16.17 -5.63,24.29 -6.39,28.84 -11.3,57.97 -16.49,87.04 -1.36,7.51 -2.61,15.06 -4.06,22.56 -1.54,7.86 -2.87,15.79 -4.61,23.6 -1.87,8.35 -3.75,16.71 -5.61,25.05 -1.73,7.66 -3.85,15.25 -5.77,22.89 -3.39,13.45 -7.2,26.87 -11.44,40.11 -4.65,14.54 -9.33,29.11 -14.65,43.43 -5.59,14.99 -11.18,29.93 -17.1,44.78 -5.97,15.01 -12.22,29.88 -18.48,44.76 -11.42,27.23 -23.42,54.3 -35.86,81.1 -6.47,13.92 -12.71,27.98 -19.45,41.79 -4.24,8.69 -8.48,17.41 -12.72,26.09 -2.53,5.2 -4.96,10.46 -7.64,15.58 -7.05,13.4 -13.83,26.93 -21.25,40.11 -6.46,11.45 -12.85,22.95 -19.47,34.31 -0.87,1.64 -1.74,3.28 -2.59,4.93 -6.57,12.69 -13.57,25.15 -20.47,37.66 -3.2,5.81 -6.63,11.5 -9.95,17.25 -3.16,5.43 -6.22,10.96 -9.49,16.33 -7.38,12.07 -14.48,24.37 -22.24,36.18 -7.99,12.14 -15.74,24.44 -24.13,36.27 -8.75,12.3 -17.42,24.61 -26.5,36.64 -4.52,5.97 -9.01,11.97 -13.58,17.91 -1.56,3.16 -3.11,6.32 -4.49,9.56 -6.02,13.99 -12.06,27.97 -18.06,41.97 -1.75,4.33 -3.42,8.69 -5.1,13.03 -1.22,3.12 -2.69,5.63 -5.69,7.37 -0.45,0.27 -0.96,0.4 -1.44,0.61 2.71,20.43 5.19,40.9 7.38,61.38 7.91,73.56 12.49,147.45 13.81,221.42 2.67,149.55 -8.38,299.32 -32.63,446.91 -4.32,26.24 -9.12,52.39 -14.37,78.46 1.73,0.49 3.4,1.25 4.94,2.29 8.32,5.59 16.82,10.85 25.92,15.07 27.31,10.61 56.44,14.97 85.34,19.06 23.7,2.53 47.4,4.03 71.17,5.56 11.46,0.72 22.93,1.56 34.41,2.6 55.76,-74.69 107.22,-152.43 154.24,-232.99 51.84,-88.9 97.55,-181.29 137.9,-275.93 40.67,-97.32 75.24,-196.94 103.41,-298.59 28.18,-101.8 49.12,-205.53 63.75,-310.12 13.9,-106.85 21.22,-214.4 21.83,-322.15 0.14,-26.62 -0.97,-53.25 -1.77,-79.87 z m -83.62,-561.06 c -27.73,-102.86 -62.87,-203.6 -103.89,-301.85 -40.99,-96.32 -87.79,-189.88 -140.4,-280.37 -53.67,-92.32 -113.89,-180.71 -178.97,-265.32 -63.07,-80.77 -130.9,-157.59 -203.18,-230.15 -73.79,-74.09 -152.67,-143.06 -235.23,-207.16 -10.32,-7.91 -20.71,-15.71 -31.15,-23.46 -7.24,2.96 -15.28,4.27 -22.99,5.85 -8.67,1.76 -17.28,3.88 -25.9,5.9 -11.29,2.67 -22.53,5.59 -33.75,8.61 0.41,0.94 0.76,1.94 1.06,3.02 1.65,5.94 0.8,12.44 -2.32,17.78 -3.02,5.15 -8.02,8.99 -13.79,10.58 -1.98,0.55 -4.22,0.85 -6.49,0.85 -2.26,0 -4.54,-0.33 -6.65,-0.97 0.95,3.48 1.9,6.97 2.85,10.47 1.7,6.3 3.33,12.64 4.98,18.96 12.95,33.3 25.11,66.91 36.56,100.74 13.64,40.35 26.09,81.08 37.5,122.09 8.79,31.55 16.76,63.3 24.25,95.18 4.34,17.95 8.5,35.94 12.43,53.96 16.9,77.11 30.04,155.08 39.42,233.49 1.07,0.04 2.12,0.35 2.96,1 1.88,1.43 3.71,2.76 5.37,4.47 1.39,1.41 2.61,2.94 4.06,4.31 2.22,2.1 4.45,4.22 6.67,6.32 4.96,4.67 10.09,9.22 15.15,13.79 1.94,1.79 2.08,4.85 0.76,7 0.56,0.69 1.14,1.4 1.71,2.08 9.78,12.06 19.85,23.97 29.3,36.31 20.25,26.47 40.41,52.96 60.43,79.58 16.23,21.57 32.41,43.2 48.89,64.59 -0.1,-0.11 -0.2,-0.23 -0.27,-0.35 0.02,0.06 0.05,0.1 0.09,0.14 0.24,0.31 0.47,0.63 0.73,0.94 0.05,0.1 0.11,0.18 0.19,0.28 -0.08,-0.12 -0.15,-0.22 -0.23,-0.33 0.25,0.33 0.51,0.66 0.77,0.99 0.02,0.02 0.04,0.06 0.06,0.08 0.08,0.1 0.15,0.2 0.23,0.29 -0.02,-0.02 -0.02,-0.02 -0.04,-0.04 10.35,13.42 20.72,26.82 31.07,40.26 0,-0.02 -0.02,-0.04 -0.02,-0.06 0.02,0.04 0.04,0.06 0.06,0.08 0,0.02 0.02,0.02 0.02,0.04 l -0.02,-0.02 c 0.02,0.02 0.02,0.04 0.04,0.06 v -0.02 c 0.05,0.07 0.13,0.17 0.21,0.29 0.11,0.12 0.21,0.23 0.3,0.37 0,0 0,0 0,0.02 l 0.02,0.02 c 0.02,0 0.04,0.02 0.04,0.04 0,0.02 0,0.02 0.02,0.02 0.02,0.02 0.04,0.04 0.04,0.06 v 0.02 l 0.02,0.02 c 0.02,0.02 0.02,0.02 0.04,0.03 0.02,0.02 0.04,0.04 0.06,0.06 0.04,0.04 0.06,0.1 0.09,0.15 l 0.02,0.02 v 0.02 c 0.02,0.02 0.04,0.06 0.06,0.08 0,-0.02 -0.02,-0.02 -0.02,-0.04 0.02,0.01 0.03,0.03 0.06,0.06 0,0 0,0.02 0.02,0.02 0,0.02 0,0.02 0.02,0.04 0.02,0.03 0.04,0.05 0.06,0.09 0.02,0.02 0.02,0.02 0.04,0.04 0.02,0.02 0.02,0.04 0.04,0.06 0,0 0.02,0 0.02,0.02 0,0 0,0 0.02,0.02 0,0 0,0 0,0.02 0.09,0.12 0.17,0.21 0.27,0.33 0.02,0.04 0.06,0.08 0.08,0.1 0.02,0.02 0.04,0.04 0.06,0.06 0.02,0.02 0.02,0.02 0.04,0.04 h -0.02 c 0.06,0.07 0.09,0.15 0.17,0.23 0.2,0.25 0.39,0.51 0.61,0.76 -0.02,0 -0.02,0 -0.02,0 9.91,12.74 19.81,25.49 29.68,38.25 -0.02,-0.01 -0.04,-0.03 -0.04,-0.03 0.02,0.03 0.06,0.07 0.08,0.11 0,-0.02 -0.02,-0.04 -0.02,-0.06 0.32,0.41 0.61,0.8 0.92,1.21 -0.04,-0.04 -0.07,-0.08 -0.09,-0.1 0.31,0.41 0.64,0.82 0.95,1.23 9.9,12.75 19.78,25.5 29.62,38.29 0.22,0.27 0.44,0.53 0.64,0.8 -0.04,-0.04 -0.06,-0.08 -0.08,-0.1 0.1,0.14 0.21,0.3 0.33,0.44 0,0.02 0.02,0.04 0.04,0.06 0,-0.02 0,-0.02 0,-0.02 0.02,0.02 0.04,0.06 0.06,0.08 0.02,0.02 0.04,0.04 0.04,0.06 0.04,0.04 0.06,0.06 0.08,0.08 -0.55,-0.72 -1.11,-1.42 -1.64,-2.12 10.17,13.18 20.37,26.33 30.53,39.5 -0.07,-0.08 -0.11,-0.14 -0.16,-0.22 0.22,0.3 0.44,0.57 0.67,0.86 0.08,0.13 0.18,0.25 0.27,0.36 -0.35,-0.45 -0.68,-0.9 -1.04,-1.35 37.84,48.58 75.86,97.04 112.85,146.25 19.21,25.56 38.33,51.18 57.55,76.72 17.21,22.83 34.8,45.35 52.12,68.08 17.93,23.57 35.94,47.06 53.69,70.75 18.71,24.95 37.05,50.15 55.06,75.62 14.97,21.21 29.5,42.73 44.8,63.69 1.44,2.46 2.34,5.07 2.73,7.81 17.05,-1.14 34.11,-2.04 51.18,-2.82 32.01,-1.43 64.04,-2.14 96.07,-2.14 2.08,0 4.16,0 6.24,0 0.2,0 0.41,0 0.63,0.02 4.96,0.02 9.92,0.04 14.89,0.1 11.59,0.08 23.24,0.16 34.82,0.84 3.9,0.1 7.45,1.98 9.68,4.89 3.13,0.07 6.24,0.17 9.34,0.27 -14.1,-91.15 -33.15,-181.38 -57.18,-270.47 z M 3614.72,1272.17 c 0.65,0.28 1.31,0.55 1.96,0.84 -0.65,-0.29 -1.31,-0.56 -1.96,-0.84 z M 2488.63,1004.34 c -1.35,0 -2.73,0 -4.08,0 -106.36,0 -212.69,7.55 -318.11,21.26 -105.37,14.55 -209.59,35.69 -312.3,63.38 -103.72,27.95 -205.39,63.36 -304.49,104.77 -97.84,41.72 -192.9,89.56 -284.76,143.25 -82.56,48.23 -161.98,101.71 -238.27,159.28 4.51,5.52 9.04,11.02 13.57,16.54 3.57,4.35 7.4,8.53 11.16,12.73 6.73,7.51 13.75,14.79 21.56,21.18 3.78,2.81 7.69,5.43 11.66,7.96 9.54,-7 19.72,-13.61 30.25,-18.94 12.47,-6.3 25.17,-12.34 38.18,-17.6 13.7,-8.44 28.11,-15.71 42.27,-23.36 5.3,-2.87 10.54,-5.96 15.97,-8.57 9.85,-4.71 19.69,-9.43 29.52,-14.14 6.54,-3.15 12.97,-6.38 19.68,-9.08 10.35,-4.2 20.71,-8.4 31.07,-12.6 5.53,-2.26 11.02,-4.53 16.67,-6.51 11.03,-3.83 22.05,-7.67 33.07,-11.52 16.21,-5.64 32.96,-9.72 49.47,-14.35 6.28,-1.75 12.66,-3.13 18.99,-4.59 9.12,-2.14 18.25,-4.26 27.39,-6.4 16.87,-3.95 33.79,-7.74 50.64,-11.81 33.43,-8.06 66.66,-16.91 100.04,-25.08 4.02,-0.99 8.12,-1.67 12.16,-2.49 4.08,-0.85 8.16,-1.83 12.28,-2.52 9.24,-1.55 18.48,-3.1 27.74,-4.63 17.22,-2.86 34.56,-5.18 51.86,-7.61 34.07,-4.81 68.42,-7.57 102.83,-8.24 35.13,-0.67 70.26,-0.96 105.4,-2.28 23.16,-0.88 46.3,-2.07 69.47,-2.94 8.12,-0.31 15.11,5.81 17.07,13.34 3.02,0.08 6.02,0.2 9.02,0.31 1.02,-1.74 2.39,-3.21 4.29,-4.31 2.87,-1.68 6.36,-2.14 9.56,-1.25 3.43,0.94 6.43,3.58 8.02,6.86 5.44,0.43 10.85,0.96 16.26,1.62 73.23,-48.42 149.14,-92.79 227.09,-133.08 126.07,-65.17 257.81,-119.7 393.16,-162.44 44.53,-14.08 89.53,-26.75 134.84,-38.17 -99.65,-11.93 -199.82,-17.83 -300.2,-17.97 z m -1487.06,511.17 c -78.172,61.31 -152.55,127.14 -223.047,197.19 -74.66,74.14 -144.136,153.49 -208.695,236.57 -62.668,81.87 -120.281,167.33 -172.574,256.2 -53.414,90.61 -100.371,184.99 -141.668,281.72 -40.82,97.68 -75.32,197.72 -103.508,299.8 -28.484,103.04 -49.547,208.1 -64.2577,313.99 -1.5351,11.65 -3.0039,23.32 -4.375,34.99 2.625,-5.67 5.293,-11.32 7.961,-16.97 -0.0977,-0.31 -0.2149,-0.63 -0.293,-0.96 -0.961,-3.51 -0.2383,-6.63 1.2969,-9.81 70.9848,-147.43 155.8628,-288.02 254.5698,-418.57 17.668,-23.35 35.754,-46.38 54.258,-69.1 2.586,-3.17 5.196,-6.34 7.801,-9.53 1.574,-1.94 3.16,-3.9 4.75,-5.84 22.047,-27.05 44.527,-53.77 67.711,-79.84 19.359,-21.77 39.117,-43.21 59.238,-64.3 0.766,-2.6 2.2,-4.94 4.102,-7.04 6.945,-7.59 13.926,-15.11 21.168,-22.42 5.254,-5.31 10.531,-10.6 15.847,-15.85 0,-0.64 0.059,-1.31 0.176,-1.96 0.77,-4.32 1.434,-8.63 2.395,-12.9 1,-4.55 2.683,-9.03 4.16,-13.44 1.703,-5.09 3.434,-10.17 5.352,-15.17 3.14,-8.1 6.257,-16.22 9.398,-24.32 4.234,-11.01 8.609,-21.89 13.082,-32.78 11.453,-27.91 23.105,-55.71 34.918,-83.48 3.957,-9.34 7.844,-18.73 12,-27.99 7.359,-16.4 14.691,-32.8 22.031,-49.18 3.903,-8.69 7.613,-17.48 11.809,-26.03 7.726,-15.73 15.457,-31.46 23.187,-47.21 4.352,-8.85 8.532,-17.78 13.215,-26.45 8.402,-15.46 16.774,-30.91 25.168,-46.38 5.492,-10.13 11.539,-19.96 17.422,-29.86 5.98,-10.12 11.906,-20.28 18.066,-30.31 28.539,-46.35 56.844,-92.82 84.485,-139.72 14.594,-24.79 29.226,-49.53 43.918,-74.26 13.926,-23.44 28.679,-46.35 44.078,-68.85 12.316,-18.05 25.031,-35.82 37.685,-53.65 5.88,-8.29 11.72,-16.58 17.53,-24.92 3.12,-4.51 6.26,-9 9.4,-13.49 3.06,-4.42 6.35,-8.69 9.67,-12.93 -0.71,-0.67 -1.39,-1.33 -2.08,-2.01 -7.4,-7.35 -14.46,-15.21 -21.11,-23.26 -5.41,-6.57 -10.83,-13.13 -16.24,-19.68 z M 468.063,2579.73 c -0.04,0.03 -0.059,0.07 -0.098,0.11 -0.059,0.08 -0.137,0.18 -0.195,0.27 0.097,-0.13 0.195,-0.27 0.293,-0.38 z M 79.0703,3175.47 c -2.75,26.66 -5.0859,53.36 -7.0039,80.08 -4.043,55.66 -5.7266,111.43 -5.8437,167.24 -0.2188,108.75 6.7265,217.26 20.8476,325.08 11.125,80.25 26.0707,159.83 44.8397,238.57 6.949,8.5 13.949,16.93 20.992,25.33 11.317,13.47 23.028,26.59 34.696,39.78 11.597,13.1 23.148,26.26 34.879,39.26 23.695,26.27 47.961,52.05 72.675,77.33 24.719,25.27 49.883,50.16 75.68,74.3 55.727,52.12 113.887,101.59 174.242,148.28 39.469,30.38 79.762,59.63 120.992,87.58 19.789,13.44 39.809,26.54 60.008,39.35 -1.136,-1.2 -1.879,-2.56 -2.617,-4.03 -0.918,-1.86 -1.074,-3.94 0,-5.8 0.516,-0.87 1.223,-1.56 2.082,-2.06 1.195,-0.71 3.082,-1.12 4.434,-0.6 3.648,1.48 7.3,2.87 10.769,4.74 3.571,1.88 6.985,4.03 10.418,6.13 2.176,1.36 4.317,2.75 6.473,4.14 4.98,3.22 10.039,6.34 14.965,9.67 9.14,6.18 18.281,12.38 27.382,18.62 9.063,6.2 18.106,12.41 27.188,18.59 1.387,0.95 2.773,1.89 4.168,2.83 0.824,-1.14 1.66,-2.26 2.484,-3.41 11.473,-15.85 22.93,-31.7 34.383,-47.55 9.375,-12.98 18.574,-26.08 27.852,-39.11 11.597,-16.24 23.328,-32.33 35.191,-48.35 20.109,-27.19 40.938,-53.82 61.223,-80.86 10.501,-13.98 21.161,-27.85 31.341,-42.07 10.6,-14.77 21.25,-29.5 31.68,-44.39 21.89,-31.21 43.69,-62.5 66.21,-93.25 11.39,-15.58 23.08,-30.92 34.78,-46.26 5.45,-7.12 11.12,-14.04 16.74,-21.02 4.91,-6.09 9.74,-12.22 14.77,-18.17 24.31,-28.64 49.01,-56.89 74.04,-84.87 24.2,-27.08 49.84,-53.3 78.81,-75.33 8.38,-6.37 16.87,-12.56 25.4,-18.73 -1.14,-3.18 -2.27,-6.36 -3.39,-9.53 -14.18,-40.14 -27.17,-80.68 -39.21,-121.52 -24.09,-81.72 -43.79,-164.78 -59.2,-248.57 -30,-162.87 -43.35,-328.72 -40.2,-494.27 0.36,-24.31 1.14,-48.61 2.22,-72.9 0.61,-13.55 1.24,-27.1 2,-40.64 0.39,-7.14 0.56,-14.4 1.6,-21.48 0.37,-2.4 0.72,-4.79 1.09,-7.18 0.55,-7.08 1.12,-14.14 1.73,-21.2 0.72,-8.44 1.51,-16.86 2.33,-25.29 -9.65,-7.15 -19.3,-14.32 -28.97,-21.46 -2.06,-0.39 -4.02,-1.13 -5.67,-2.28 -13.77,-9.43 -27.87,-18.45 -41.33,-28.36 -14.63,-10.79 -28.87,-22.12 -43.17,-33.36 0,0 0,0 0.02,0.01 -10.69,-8.24 -21.33,-16.55 -32.43,-24.18 -6.94,-4.77 -13.89,-9.54 -20.85,-14.28 -6.98,-4.81 -14.32,-9.18 -21.46,-13.77 -11.91,-7.61 -23.89,-15.11 -35.68,-22.87 -14.361,-9.46 -28.463,-19.18 -42.588,-29 -12.906,-8.98 -25.496,-18.43 -38.187,-27.71 -5.219,-3.83 -10.434,-7.65 -15.657,-11.48 -5.922,-4.37 -11.765,-8.9 -17.832,-13.08 -7.726,-5.31 -15.433,-10.63 -23.164,-15.97 -4.57,-3.13 -9.082,-6.32 -13.769,-9.26 -13.34,-8.36 -26.524,-17.04 -40.215,-24.81 -13.711,-7.78 -27.403,-15.64 -41.25,-23.2 -14.18,-7.73 -28.363,-15.48 -42.504,-23.27 -8.867,-4.88 -17.715,-9.83 -26.543,-14.77 -0.527,2 -1.566,3.9 -3.16,5.5 -2.352,2.35 -5.629,3.58 -8.86,3.58 -3.179,0 -6.32,-1.17 -8.593,-3.58 -7.828,-8.34 -15.657,-16.64 -23.953,-24.51 -3.391,-3.22 -6.688,-6.61 -10.278,-9.59 -2.137,-1.76 -4.277,-3.53 -6.394,-5.32 -5.039,-2.68 -10.067,-5.41 -14.989,-8.29 -2.605,-1.16 -4.199,-3.92 -4.668,-6.79 -1.214,-0.85 -2.429,-1.7 -3.644,-2.54 -0.731,-0.51 -1.461,-1.02 -2.195,-1.52 -3.051,6.62 -6.063,13.27 -9.094,19.91 -1.824,4.01 -6.594,7.09 -10.692,8.23 -1.535,0.42 -3.125,0.62 -4.707,0.62 -3.156,0 -6.308,-0.82 -9.062,-2.43 -0.617,-0.36 -1.164,-0.82 -1.731,-1.26 -4.757,4.67 -9.492,9.36 -14.289,14 -1.839,1.79 -4.019,3.06 -6.312,3.81 -47.57,48.8 -93.195,99.48 -136.586,152.04 -13.082,16.17 -25.992,32.45 -38.723,48.88 0.02,-0.04 0.059,-0.08 0.078,-0.12 -0.117,0.16 -0.234,0.32 -0.351,0.45 0.019,-0.02 0.058,-0.06 0.078,-0.08 -0.176,0.22 -0.352,0.46 -0.527,0.7 0.039,-0.06 0.078,-0.12 0.117,-0.18 -0.078,0.08 -0.137,0.18 -0.196,0.26 0.02,-0.02 0.059,-0.06 0.079,-0.08 -0.039,0.04 -0.059,0.06 -0.079,0.1 l -0.019,0.02 c -0.043,0.01 -0.043,0.03 -0.063,0.05 0,0.02 -0.019,0.02 -0.019,0.02 0,0 0,0 0.019,0 -0.019,0.02 -0.039,0.04 -0.058,0.08 0,0 0,0 0,-0.02 0,0.02 0,0.02 -0.02,0.04 -0.078,0.1 -0.136,0.16 -0.175,0.25 0,-0.01 0,-0.03 0,-0.03 -99.528,129.36 -186.719,268.12 -259.063,414.47 -3.863,7.83 -7.672,15.72 -11.437,23.58 -1.196,2.63 -4.18,4.69 -6.883,5.63 -6.985,14.73 -13.8284,29.52 -20.5393,44.37 -1.3321,2.94 -4.5508,4.39 -7.6875,4.39 -0.0782,0 -0.1368,0 -0.2149,0 z M 255.41,4364.06 c 40.235,94.37 86.113,186.11 137.567,274.89 52.57,90.78 111.433,177.86 175.168,261.19 62.378,80.24 129.425,156.61 200.945,228.83 74.301,75.05 153.879,144.9 237.19,209.83 83.89,64.43 171.6,123.5 262.87,176.99 61,35.76 123.71,68.58 187.68,98.71 1.51,-31.15 3.63,-62.29 6.32,-93.33 2.13,-24.58 4.76,-49.12 7.63,-73.62 1.29,-11.07 2.68,-22.13 4.15,-33.19 -7.63,-0.37 -13.77,-7.91 -13.77,-15.27 0,-1.37 0.2,-2.74 0.56,-4.05 -1.44,-1.12 -2.87,-2.26 -4.3,-3.4 -0.97,-0.77 -1.91,-1.61 -2.86,-2.4 -3.33,-1.51 -6.62,-3.1 -9.72,-5.02 -4.16,-2.59 -8.07,-5.54 -11.91,-8.59 -6.06,-4.83 -12.06,-9.75 -18.05,-14.69 -12.26,-10.1 -24.18,-20.58 -35.86,-31.33 -23.43,-21.6 -45.42,-44.78 -66.61,-68.56 -43.29,-48.57 -83.66,-99.59 -123.95,-150.63 -20.05,-25.42 -40,-50.9 -59.65,-76.61 -18.68,-24.45 -36.96,-49.2 -55.53,-73.72 -19.81,-26.14 -39.8,-52.18 -59.63,-78.32 -9.17,-12.07 -18.384,-24.12 -27.291,-36.37 -10.746,-14.75 -21.496,-29.48 -32.246,-44.25 -2.824,-3.89 -5.336,-8.05 -7.984,-12.05 -5.863,-8.83 -11.727,-17.68 -17.594,-26.52 -4.965,-7.49 -9.945,-14.99 -14.91,-22.48 -1.586,-2.39 -3.078,-4.74 -4.512,-7.22 -9.472,-16.42 -18.906,-32.83 -28.383,-49.25 -11.359,-19.72 -22.457,-39.55 -33.562,-59.42 -2.699,-4.84 -2.449,-10.61 0.23,-15.1 -3.125,-1.79 -6.277,-3.54 -9.394,-5.34 -0.707,-0.33 -1.414,-0.67 -2.125,-1 -0.012,0.02 -0.027,0.03 -0.043,0.05 -0.254,0.71 -0.566,1.33 -1,1.91 -5.059,6.55 -9.941,13.32 -15.453,19.49 -1.965,2.22 -4.922,3.3 -7.887,3.3 -2.062,0 -4.101,-0.53 -5.824,-1.53 -5.027,-2.94 -7.555,-10.4 -4.063,-15.48 4.211,-6.1 8.696,-12.01 13.129,-17.96 -4.367,-2.17 -8.73,-4.34 -13.09,-6.51 -2.375,-1.18 -4.734,-2.38 -7.097,-3.58 -2.461,1.92 -5.434,3 -8.539,3 -2.41,0 -4.864,-0.59 -7.117,-1.78 -7.454,-3.94 -14.93,-7.85 -22.145,-12.2 -7.906,-4.77 -15.773,-9.6 -23.617,-14.44 -14.91,-9.22 -29.719,-18.59 -44.41,-28.11 -29.938,-19.38 -59.438,-39.43 -88.528,-60.06 -59.16,-41.94 -116.535,-86.45 -171.855,-133.37 -54.61,-46.35 -107.508,-94.8 -158.039,-145.56 -24.953,-25.05 -49.274,-50.69 -73.047,-76.86 -11.809,-12.96 -23.484,-26.05 -34.84,-39.41 -4.019,-4.73 -8.004,-9.49 -11.945,-14.28 28.047,103.79 63.515,205.5 104.941,304.67 z m 1290.08,1290.16 c 99.67,41.6 201.77,76.72 305.97,105.18 102.8,28.06 207.55,48.92 313.1,63.48 107.51,14 215.61,21.19 324.07,21.42 109.91,0.19 219.65,-7.19 328.64,-21.48 106.9,-14.83 212.61,-36.49 316.74,-64.96 56.68,-15.49 112.76,-33.22 168.12,-52.93 -0.67,-1.46 -1.34,-2.93 -1.81,-4.4 -0.84,-2.63 -1.3,-5.33 -1.53,-8.06 -0.47,-5.51 -0.33,-11.01 0,-16.54 0.75,-11.92 3.03,-23.79 5.75,-35.4 1,-4.28 2.32,-8.48 3.51,-12.69 1.12,-3.87 2.06,-7.81 3.34,-11.62 5.27,-15.73 10.74,-31.34 16.77,-46.82 3.01,-7.83 6.39,-15.73 10.18,-23.22 3.49,-6.87 6.96,-13.75 11.3,-20.15 6.9,-10.18 14.57,-19.89 22.85,-29.01 -1.26,0 -2.49,0 -3.75,0 -39.66,-0.02 -79.32,-0.9 -118.94,-2.73 -79.98,-3.66 -159.72,-11.49 -238.97,-22.89 -155.74,-22.4 -309.18,-60.34 -457.63,-112.44 -41.2,-14.46 -81.96,-30.14 -122.35,-46.75 -2.4,1.81 -5.49,2.71 -8.62,2.71 -4.15,0 -8.34,-1.53 -10.94,-4.45 -1.55,-1.76 -2.94,-3.63 -4.37,-5.49 -0.36,-0.78 -0.69,-1.55 -1.04,-2.31 -12.61,2.57 -25.23,5.15 -37.79,7.96 -19.25,4.26 -38.43,8.68 -57.65,12.98 -3.54,0.79 -7.09,1.57 -10.63,2.36 -12.85,3.92 -25.69,7.85 -38.58,11.63 -18.13,5.32 -36.39,10.08 -54.66,14.93 -19.2,5.1 -38.44,10.02 -57.86,14.24 -18.26,3.98 -36.62,7.5 -55.06,10.55 -22.23,3.68 -44.45,6.77 -66.83,9.16 -19.32,2.08 -38.76,3.44 -58.12,5.03 -39.11,3.2 -78.15,6.59 -117.32,8.61 -37.75,1.92 -75.56,3.08 -113.34,4.33 -13.95,0.46 -27.86,0.75 -41.8,0.83 -0.85,0 -1.69,0 -2.55,0 -11.87,0 -23.72,-0.61 -35.59,-1.06 -5.53,-0.22 -11.06,-0.91 -16.55,-1.36 -4.2,-0.33 -8.37,-0.68 -12.55,-1.04 -14.17,1.39 -28.37,2.67 -42.55,3.95 -29.56,2.65 -59.18,4.84 -88.8,7.02 -0.77,0.37 -1.57,0.69 -2.39,0.92 -0.3,0.08 -0.61,0.16 -0.93,0.22 -1.37,11.2 -2.7,22.4 -3.96,33.62 -2.75,24.5 -4.98,49.04 -7,73.62 -2.81,34.21 -4.85,68.47 -6.22,102.78 22.64,10.42 45.43,20.5 68.34,30.27 z m 2390.2,-3524.98 c -0.84,-2.74 -1.67,-5.47 -2.48,-8.22 0.91,9.99 1.83,19.97 2.7,29.97 0.47,5.25 0.84,10.51 1.16,15.78 3.52,-0.68 7.04,-0.54 10.4,0.27 -3.93,-12.6 -7.89,-25.19 -11.78,-37.8 z m -732.04,-977.36 c -3.01,0.1 -6.04,0.13 -9.04,0.13 -6.08,-0.01 -12.21,-0.27 -18.31,-0.7 -1.73,0.72 -3.57,1.16 -5.49,1.5 8.83,2.88 17.68,5.71 26.48,8.69 2.14,0.73 4.26,1.5 6.41,2.23 -0.97,-3.82 -0.98,-7.98 -0.05,-11.85 z m 152.32,2418.16 c 0.04,-0.08 0.12,-0.15 0.15,-0.21 0.04,-0.05 0.04,-0.07 0.08,-0.1 l 0.02,-0.02 -0.04,-0.04 c -2.33,3.04 -4.67,6.08 -7.04,9.12 2.3,-2.9 4.55,-5.83 6.83,-8.75 z m -35.19,34.84 c 0.04,3.14 0.08,6.28 0.12,9.42 0.02,-0.02 0.02,-0.04 0.04,-0.04 -0.06,-3.14 -0.1,-6.26 -0.16,-9.38 z M 2007.83,2198.14 c 0.37,-0.19 0.73,-0.39 1.1,-0.58 -0.02,0 -0.06,0 -0.08,0 z m -29.85,-757.1 0.01,0.2 c 0,-0.08 0,-0.14 0,-0.22 0,0 0,0 -0.01,0.02 z m -707.87,1343.44 c 0.02,-0.02 0.04,-0.05 0.06,-0.07 0.11,-1.27 0.25,-2.53 0.39,-3.8 -0.14,1.29 -0.29,2.57 -0.45,3.87 z m 1935.45,-131.21 c -1.21,-0.89 -2.43,-1.79 -3.66,-2.67 v 0.02 z m 11.24,-39.16 c -1.73,0.56 -3.47,1.1 -5.2,1.65 0,0 0.02,0.02 0.04,0.02 1.71,-0.55 3.43,-1.09 5.16,-1.67 z M 1387.92,3891.6 c 3.39,-2.14 6.83,-4.2 10.34,-6.16 3.26,-1.8 6.84,-2.71 10.39,-2.71 5.26,0 10.46,1.97 14.4,5.91 3.83,3.82 5.98,9.06 5.98,14.47 0,4.7 -1.83,10.1 -5.22,13.59 2.06,1.41 3.68,3.24 4.82,5.32 2.8,2.01 5.6,4.03 8.41,6.05 7.57,5.43 15.53,10.41 23.28,15.59 6.4,4.3 12.89,8.43 19.34,12.63 27.05,17.6 54.04,35.25 80.8,53.28 29.36,19.77 58.67,39.6 88.42,58.79 0.36,0.23 0.73,0.44 1.09,0.67 1.46,0.69 2.91,1.43 4.38,2.1 11.61,5.31 23.21,10.65 34.84,15.9 52.86,23.95 105.09,49.22 158.19,72.6 39.98,16.62 80.1,32.89 119.35,51.22 18.73,8.73 37.23,17.85 55.83,26.87 8.81,4.29 17.59,8.72 26.46,12.91 20.73,8.53 41.4,17.19 61.87,26.28 0.7,0.31 1.39,0.62 2.09,0.93 11.61,4.08 23.19,8.14 34.88,11.94 23.1,7.51 46.33,14.89 69.65,21.72 24.19,7.1 48.55,13.22 73.09,19 19.55,4.6 39.09,8.82 58.87,12.16 5.15,-2.12 10.31,-4.22 15.45,-6.39 147.16,-62.35 287.89,-139.23 420.24,-228.8 43.27,-29.31 85.64,-59.99 127.05,-91.9 9.69,-7.5 19.33,-15.08 28.91,-22.73 49.89,-40.06 98.18,-82 144.95,-125.72 23,-21.52 45.56,-43.51 67.7,-65.93 0.4,-0.39 0.79,-0.8 1.18,-1.2 1.02,-1.04 2.02,-2.06 3.04,-3.08 0.91,-0.92 1.81,-1.86 2.7,-2.78 0.54,-0.51 1.05,-1.04 1.56,-1.57 35.25,-36.05 69.4,-73.17 102.45,-111.28 8.59,-9.9 17.11,-19.87 25.56,-29.91 -0.02,-22.42 -0.02,-44.82 -0.12,-67.25 -0.1,-27.34 -0.49,-54.7 -1.25,-82.05 -0.74,-26.73 -2.14,-53.51 -4.88,-80.13 -0.78,-7.33 -1.52,-14.67 -2.28,-21.99 -1.55,-11.57 -2.91,-23.18 -4.88,-34.67 -2.34,-13.74 -4.5,-27.53 -7.13,-41.22 -5.35,-27.67 -11,-55.34 -16.11,-83.07 -2.56,-14.02 -5.35,-28.01 -7.68,-42.08 -2.32,-14.02 -4.92,-28.05 -6.94,-42.13 -2.2,-15.16 -4.38,-30.33 -6.56,-45.51 -2.29,-16.08 -4.02,-32.29 -6.02,-48.41 -3.27,-26.38 -5.69,-52.9 -8.2,-79.37 -2.51,-26.34 -5.16,-52.66 -8.28,-78.95 -3.29,-27.97 -6.59,-55.94 -9.92,-83.92 -3.46,-29.12 -7.1,-58.23 -10.22,-87.4 -1.21,-11.34 -2.51,-22.67 -3.63,-34.01 -0.75,-7.79 -1.51,-15.58 -2.25,-23.36 -0.54,-5.38 -1.4,-10.85 -1.59,-16.26 -0.22,-6.77 -0.47,-13.54 -0.71,-20.3 -0.04,-1.13 -0.06,-2.24 -0.06,-3.38 -5.32,-3.81 -10.65,-7.57 -16,-11.34 -3.95,0 -7.87,-0.27 -11.76,-0.86 -6.23,-0.97 -12.31,-5.36 -15.75,-10.54 -1.84,-2.74 -3.25,-5.49 -3.59,-8.83 -0.03,-0.43 -0.07,-0.87 -0.07,-1.3 -14.68,-9.99 -29.47,-19.8 -44.36,-29.45 -29.89,-19.34 -60.19,-38.02 -90.88,-56.06 -4.82,-2.82 -9.63,-5.64 -14.47,-8.42 -79.31,-45.7 -161.28,-86.68 -245.22,-123.16 -4.74,-2.05 -9.47,-4.09 -14.21,-6.09 -167.47,-70.54 -342.01,-123.75 -520.96,-155.74 -33.85,-6.06 -67.87,-11.34 -101.96,-15.99 0.02,0 0.04,0.02 0.06,0.02 -0.04,0 -0.08,-0.02 -0.12,-0.02 h -0.02 c -0.02,0 -0.06,0 -0.08,-0.02 -0.16,-0.02 -0.29,-0.04 -0.43,-0.04 0.06,0 0.12,0 0.2,0 -1.51,-0.19 -2.98,-0.39 -4.48,-0.59 0.94,0.15 1.89,0.26 2.83,0.4 -4.88,-0.65 -9.79,-1.28 -14.67,-1.9 -1.51,0.83 -3.03,1.68 -4.53,2.5 -14.66,7.98 -29.43,15.78 -44.22,23.52 -29.05,15.19 -57.37,31.56 -85.48,48.4 -26.31,15.76 -51.98,32.58 -78.09,48.66 -28.98,17.85 -58.2,35.29 -87.08,53.31 -12.57,7.87 -24.83,16.31 -36.91,24.91 -13.07,9.35 -25.99,18.84 -38.8,28.55 -43.08,32.62 -86.41,64.93 -129.25,97.84 -49.8,39.33 -98.98,79.52 -146.76,121.32 -13.26,11.6 -26.49,23.21 -39.53,35.04 -11.81,10.71 -23.3,21.71 -34.88,32.65 -11.26,10.64 -22.08,21.78 -32.97,32.83 -12.75,12.96 -25.5,25.92 -38.29,38.87 -4.38,4.46 -8.93,8.73 -13.48,13.01 -2.76,2.61 -5.52,5.2 -8.27,7.8 -0.18,0.16 -0.34,0.32 -0.51,0.47 -0.3,2.81 -0.59,5.62 -0.88,8.42 1.11,1.51 1.98,3.21 2.54,5.27 1.24,4.54 0.59,9.5 -1.78,13.56 -0.82,1.41 -1.84,2.68 -3,3.81 -0.16,1.61 -0.29,3.19 -0.45,4.8 -1.22,13.22 -2.34,26.45 -3.35,39.66 0,1.81 -0.02,3.63 -0.02,5.44 0,2.51 0,4.96 -0.2,7.47 -0.22,2.49 -0.41,5 -0.61,7.49 -0.86,10.87 -1.73,21.74 -2.39,32.61 -1.32,21.61 -2.3,43.25 -3.03,64.91 -0.21,6.49 -0.41,12.96 -0.58,19.45 -1.57,69.03 -0.24,138.14 3.86,207.06 3.63,60.48 9.47,120.82 17.5,180.86 11.35,83.5 26.89,166.44 46.76,248.31 18.6,76.66 41.08,152.34 66.99,226.82 z m -524.502,674.91 4.293,-5.8 c -1.43,1.92 -2.883,3.84 -4.332,5.76 0.019,0 0.019,0.02 0.039,0.04 z m 183.812,310.22 c 0.01,0.01 0.01,0.02 0.02,0.03 -0.01,-0.01 -0.01,-0.02 -0.02,-0.03 z m 433.51,497.08 c -2.63,-2.08 -5.2,-4.17 -7.73,-6.33 2.55,2.18 5.12,4.29 7.73,6.37 0,-0.02 0,-0.02 0,-0.04 z m 847.34,-98.68 c 3.68,-1.04 7.41,-2.08 11.12,-3.08 -0.02,0 -0.04,-0.02 -0.04,-0.02 -3.71,1.02 -7.42,2.06 -11.08,3.1 z M 1419.23,4039.31 c -0.42,-0.49 -0.81,-1.03 -1.14,-1.59 0,0 -0.02,0 -0.04,0 0.35,0.56 0.75,1.1 1.18,1.59 z m -484.726,432.36 -0.332,0.47 c 3.199,-4.16 6.375,-8.27 9.492,-12.32 -3.039,3.93 -6.078,7.85 -9.121,11.78 0.195,-0.24 0.375,-0.5 0.57,-0.73 -0.195,0.27 -0.414,0.53 -0.609,0.8 z m 227.976,-297.14 -0.26,0.36 c 0.34,-0.43 0.67,-0.84 0.98,-1.28 -0.23,0.32 -0.49,0.61 -0.72,0.92 z m 1.6,-2.15 c -0.29,0.39 -0.6,0.78 -0.9,1.17 l -0.16,0.22 c 0.36,-0.47 0.71,-0.92 1.06,-1.39 z M 668.613,2446.33 c 0.477,0.43 0.946,0.86 1.414,1.29 0.039,0.02 0.094,0.03 0.137,0.05 -0.527,-0.44 -1.035,-0.89 -1.551,-1.34 z m -38.211,-31.27 h 0.02 c 0.414,-0.41 0.824,-0.81 1.258,-1.22 -0.434,0.39 -0.844,0.81 -1.278,1.22 z M 2074.33,1381.75 c -0.65,2.39 -1.9,4.56 -3.51,6.42 0.04,5.07 -1.18,10.14 -3.88,14.61 -3.29,5.43 -6.76,9.88 -12.28,13.26 -4.53,2.79 -9.06,4.67 -14.27,5.59 -5.28,0.93 -10.38,1.28 -15.7,1.45 -2.62,0.09 -5.26,0.2 -7.89,0.3 0.57,4.95 1.12,9.9 1.73,14.84 2.39,17.34 5.33,34.56 8.77,51.74 3.49,17.42 7.47,34.74 11.18,52.12 7.47,35.27 13.3,70.87 20.07,106.28 7.08,37.01 14.41,73.94 23.97,110.44 9.39,35.91 20.04,71.51 31.46,106.82 11.36,35.17 24.42,69.75 35.41,105.04 5.39,17.32 10.06,34.9 14.77,52.41 4.8,17.84 7.75,36.18 10.94,54.36 1.37,7.77 2.57,15.59 3.72,23.4 2.11,-1.27 4.19,-2.58 6.2,-4.02 3.16,-1.84 6.57,-2.77 10.24,-2.77 5.35,0 10.55,2.14 14.34,5.95 7.63,7.63 8.06,21.1 0,28.68 -7.91,7.41 -17.21,13.02 -26.39,18.65 -5.92,3.64 -11.83,7.22 -17.75,10.83 -0.14,0.32 -0.29,0.65 -0.47,0.96 -0.65,1.12 -1.53,2 -2.64,2.65 -1.16,0.69 -2.32,0.98 -3.48,0.98 -0.29,0 -0.59,-0.02 -0.88,-0.06 -7.28,4.44 -14.56,8.87 -21.84,13.3 78.33,11.87 156.09,27.7 232.94,46.9 87.94,21.97 174.62,48.89 259.55,80.53 86,32.03 170.19,69.29 252.03,110.89 105.03,53.35 206.31,114.1 302.88,181.57 0.38,-4.17 0.79,-8.35 1.22,-12.53 0.27,-2.73 0.9,-5 2.9,-7 1.84,-1.85 4.39,-2.9 7,-2.9 5.01,0 10.48,4.53 9.93,9.9 -0.49,4.76 -0.91,9.51 -1.3,14.28 0.83,-0.26 1.65,-0.53 2.47,-0.79 10.17,-3.24 20.03,-7.39 29.9,-11.39 16.19,-7.04 32.39,-14.03 48.41,-21.41 18.87,-8.68 37.72,-17.39 56.58,-26.1 6.46,-3 12.92,-5.99 19.39,-8.97 0.31,-0.15 0.64,-0.31 0.97,-0.45 28.34,-13.1 56.67,-26.23 84.85,-39.61 8.79,-4.17 17.32,-9 25.95,-13.49 6.53,-3.39 13.02,-6.75 19.4,-10.43 17.48,-10.11 34.95,-20.15 52.26,-30.55 34.38,-20.65 68.73,-41.37 102.84,-62.49 7.79,-4.82 15.34,-10.09 22.99,-15.13 6.22,-4.1 12.34,-8.27 18.44,-12.56 14.22,-10.01 28.19,-20.23 42.15,-30.61 7.16,-5.68 14.32,-11.4 21.46,-17.06 7.15,-5.69 13.99,-11.78 20.96,-17.64 14.68,-12.4 29.11,-25.12 43.91,-37.37 14.99,-12.37 30.34,-24.47 46.27,-35.65 7.5,-5.27 14.95,-10.64 22.76,-15.46 7.65,-4.75 15.4,-9.67 23.66,-13.32 0.39,-0.17 0.77,-0.33 1.16,-0.51 -0.14,-2.54 -0.28,-5.09 -0.45,-7.61 -0.48,-6.73 -0.83,-13.46 -1.42,-20.16 -1.22,-14.27 -2.54,-28.51 -3.8,-42.75 -1.65,-18.61 -3.04,-37.27 -4.71,-55.89 -0.84,-9.45 -1.37,-19 -2.55,-28.43 -1.09,-8.69 -2.18,-17.38 -3.27,-26.06 -2.26,-12.93 -4.28,-25.89 -7,-38.72 -3.15,-14.8 -6.36,-29.6 -9.72,-44.36 -6.42,-28.39 -12.24,-56.87 -17.89,-85.43 -4.98,-25.17 -9.67,-50.41 -15.77,-75.35 -3.55,-14.54 -7.14,-29.05 -10.94,-43.52 -3.85,-14.58 -7.83,-29.11 -11.86,-43.65 -6.92,-24.99 -14.39,-49.8 -21.76,-74.65 -8.28,-27.9 -16.5,-55.81 -25.73,-83.41 -0.88,-2.71 -1.92,-5.27 -2.62,-7.96 -105.62,-72.28 -216.4,-136.85 -331.53,-192.71 -35.1,-16.85 -70.63,-32.88 -106.51,-48.1 1.06,0.45 2.12,0.91 3.17,1.34 -1.36,-0.59 -2.76,-1.16 -4.13,-1.75 -0.34,-0.14 -0.67,-0.27 -0.98,-0.41 0.29,0.14 0.6,0.25 0.9,0.39 -161.87,-67.93 -331.25,-118.22 -503.65,-151.15 -2.43,-0.47 -4.75,-1.78 -6.77,-3.48 -1,-0.42 -1.99,-0.9 -2.93,-1.46 -22.32,-4.05 -44.71,-7.76 -67.13,-11.08 -3.64,-0.53 -7.24,-3.87 -9.01,-6.92 -1.28,-2.16 -1.96,-4.61 -2.04,-7.1 -100.99,28.11 -200.19,62.67 -296.8,103.4 -128.21,54.47 -251.4,120.22 -368.42,195.7 0.28,2.12 0.16,4.3 -0.43,6.4 z m 708.36,-316.98 c 2.42,0.38 4.84,0.79 7.26,1.18 -0.6,-0.83 -1.14,-1.69 -1.64,-2.59 -1.87,0.49 -3.75,0.93 -5.62,1.41 z m 1203.59,1130.38 c -0.74,-0.96 -1.49,-1.95 -2.24,-2.91 0,0.02 0,0.04 0,0.06 0.75,0.94 1.5,1.91 2.24,2.85 z m 232.48,1716.73 c -0.51,-2.71 -1,-5.43 -1.52,-8.18 0.51,2.75 1.01,5.51 1.5,8.26 0,-0.04 0.02,-0.06 0.02,-0.08 z m 367.85,-823.63 c 0,0 0,0 -0.02,0 l -0.54,2.51 c 0.19,-0.85 0.37,-1.67 0.56,-2.51 z M 3430.72,5465.54 c 4.75,-0.14 9.5,-0.3 14.25,-0.45 4.31,-0.16 8.59,-0.2 12.9,-0.22 2.1,0 4.2,0 6.3,-0.02 4.49,-3.32 9.01,-6.65 13.5,-9.96 6.96,-5.14 14.27,-9.85 21.41,-14.77 6.48,-4.46 12.87,-9.03 19.49,-13.28 9.27,-6 18.57,-12.01 27.85,-18.01 8.04,-5.2 16.43,-9.89 24.64,-14.81 14.33,-8.62 29.09,-16.58 43.64,-24.82 16.97,-9.59 33.68,-19.45 50.39,-29.46 8.59,-5.14 16.85,-10.92 25.25,-16.38 7.73,-5 15.2,-10.39 22.76,-15.63 14.63,-10.12 29.08,-20.5 43.72,-30.62 14.37,-9.95 28.93,-19.64 43.29,-29.62 16.98,-11.81 33.88,-23.72 50.64,-35.84 14.49,-10.47 28.82,-21.16 43.29,-31.64 29.45,-21.28 59.56,-41.6 88.8,-63.18 10.19,-7.51 20.25,-15.16 30.3,-22.83 28.1,-22.6 55.45,-46.04 81.25,-71.32 13.8,-13.54 27.34,-27.27 40.57,-41.39 4.75,-5.05 9.32,-10.27 13.83,-15.56 0.24,-0.86 0.46,-1.75 0.69,-2.6 3.61,-13.86 7.08,-27.73 10.45,-41.61 7.04,-29.04 13.6,-58.2 19.64,-87.47 11.71,-56.73 21.44,-113.83 29.25,-171.22 0.04,-0.38 0.1,-0.75 0.16,-1.12 0.07,-0.61 0.15,-1.2 0.23,-1.81 19.42,-146.47 25.67,-294.56 18.89,-442.15 -2.98,-65.3 -8.61,-130.45 -16.79,-195.31 -8.87,-2.85 -17.68,-5.65 -26.68,-8.01 -8.41,-2.18 -16.87,-4.12 -25.32,-6.1 -17.56,-4.12 -34.89,-8.94 -52.12,-14.24 -16.77,-5.18 -33.45,-10.67 -50.27,-15.58 -17.35,-5.03 -34.7,-9.96 -52.12,-14.75 -35.59,-9.74 -71.28,-19.42 -106.21,-31.42 -10.52,-3.63 -21.04,-7.24 -31.58,-10.87 -8.62,-2.96 -17.12,-6.39 -25.67,-9.57 -18.07,-6.75 -36.09,-13.61 -54.12,-20.48 -16.36,-6.24 -32.79,-12.2 -49.27,-18.14 -16.23,-5.86 -32.41,-11.83 -48.83,-17.12 -17.99,-5.81 -35.92,-11.97 -54.04,-17.31 -17.65,-5.17 -35.3,-10.36 -52.96,-15.55 -21.64,-6.38 -43.27,-12.75 -64.91,-19.13 -18.05,-5.31 -35.95,-11.26 -53.9,-16.89 -36.46,-11.41 -72.58,-23.83 -108.79,-36.01 -10.05,-3.38 -20.05,-6.83 -30.08,-10.3 0.19,1.85 0.37,3.69 0.58,5.51 0.37,2.24 0.86,4.44 1.43,6.63 1.55,5.99 -0.94,12.4 -6.33,15.54 -2.06,1.22 -4.51,1.8 -6.96,1.8 -4.82,0 -9.68,-2.27 -11.86,-6.75 -2.02,-4.11 -3.76,-8.31 -5.12,-12.71 -0.52,-1.64 -0.84,-3.37 -1.26,-5.05 -0.82,-3.34 -1.29,-6.75 -1.85,-10.13 -1.38,-8.2 -1.65,-16.63 -2.1,-24.93 -0.14,-2.47 -0.26,-4.96 -0.33,-7.43 -0.04,0.05 -0.1,0.09 -0.14,0.15 -22.52,25.92 -45.6,51.28 -69.19,76.15 -37.15,39.33 -75.67,77.34 -115.3,114.16 -43.37,40.27 -88.33,78.86 -134.56,115.83 -11.89,9.56 -23.85,19.01 -35.9,28.35 -64.81,50.25 -132.03,97.43 -201.69,140.72 -67.88,42.21 -137.66,81.43 -209.4,116.72 -28.95,14.23 -58.15,27.96 -87.57,41.15 0.03,0.07 0.08,0.13 0.11,0.19 3.83,6.69 4.3,15.02 5.22,22.48 0.55,4.37 0.67,8.81 0.76,13.2 0.19,7.94 0.48,15.89 0.75,23.83 0.59,17.4 0.28,34.82 -0.53,52.22 -1.68,36.58 -3.98,73.24 -8.59,109.59 -2.18,17.13 -4.51,34.19 -7.37,51.22 -2.83,16.76 -5.55,33.54 -8.15,50.35 -1.11,8.7 -2.2,17.38 -3.31,26.07 -1.19,9.31 -1.71,18.75 -2.52,28.1 1.12,23.18 2.65,46.34 4.46,69.51 2.89,36.9 6.42,73.75 9.63,110.63 3.38,38.9 6.3,77.81 8.97,116.77 0.81,11.91 1.48,23.84 2.1,35.75 0.45,3.61 0.95,7.22 1.39,10.83 3.58,29.6 5.76,59.35 8.06,89.05 1.09,14.05 2.43,28.07 3.96,42.06 1.16,4.61 2.31,9.23 3.42,13.84 2.88,11.95 5.74,23.89 8.63,35.84 3.49,14.57 7.49,29.02 11.36,43.52 1.79,6.7 -1.39,13.72 -7.29,16.91 14.47,5.68 28.98,11.25 43.57,16.64 36.88,13.65 74.13,26.35 111.64,38.19 75.01,23.66 151.19,43.59 228.12,59.93 60.13,12.77 120.73,23.2 181.64,31.44 75.11,9.99 150.63,16.54 226.35,19.7 38.06,1.58 76.16,2.27 114.26,2.05 19.07,-0.11 38.13,-0.49 57.19,-1.05 z m -17.85,41.8 c -0.02,0.02 -0.04,0.04 -0.06,0.05 -0.07,0.59 -0.13,1.18 -0.15,1.77 0.04,-0.61 0.1,-1.22 0.21,-1.82 z m 6.32,-8.96 c 0.83,-0.64 1.65,-1.24 2.47,-1.87 -0.7,0.02 -1.39,0.04 -2.08,0.04 -0.17,0.68 -0.37,1.35 -0.6,2 0.07,-0.06 0.13,-0.12 0.21,-0.17 z m 750.15,-495.17 c -1.75,1.97 -3.5,3.91 -5.27,5.85 -0.04,0.08 -0.07,0.16 -0.11,0.22 1.8,-2.03 3.59,-4.04 5.38,-6.07 z m 51.91,-121.41 c -7.2,-3.3 -14.04,-7.12 -20.73,-11.32 -0.78,3.53 -1.56,7.04 -2.35,10.55 -2.79,12.36 -5.67,24.72 -8.66,37.04 10.7,-11.99 21.49,-23.9 31.74,-36.27 z m 177.76,32.42 c -0.01,0 -0.01,0 -0.03,0 -15.19,19.24 -30.59,38.23 -46.19,56.91 15.68,-18.76 31.1,-37.73 46.22,-56.91 z m 574.98,-1396.85 c -1.48,40.59 -4.16,81.13 -7.64,121.6 -3.84,44.67 -9.16,89.25 -15.63,133.66 -8.61,60.47 -19.38,120.65 -32.17,180.35 -16.4,76.4 -36.9,151.92 -60.47,226.42 -23.8,75.13 -51.89,148.76 -82.65,221.3 -59.67,140.8 -133.71,275.39 -218.5,402.59 -22.1,33.15 -45,65.78 -68.67,97.81 -0.43,5.61 -2.86,10.9 -6.84,14.88 -2.18,2.18 -5.18,4.22 -8.4,5.54 -63.52,84.15 -132.33,164.3 -205.76,239.89 -106.97,110.13 -224.88,209.47 -350.11,298.18 -249.03,176.48 -531.93,304.87 -827.85,379.04 -151.01,37.83 -305.91,60.45 -461.22,69.59 -46.95,2.74 -93.97,4.1 -140.96,4.1 -109.57,0 -219.13,-7.39 -327.72,-21.73 -76.76,-10.15 -152.92,-23.76 -228.4,-40.94 -75.19,-17.11 -149.44,-38.21 -222.64,-62.4 -146.49,-48.39 -288.21,-111.4 -423.23,-185.91 C 1147.32,5525.27 1017.59,5435.03 896.531,5334.55 775.559,5234.11 664.871,5121.52 565.121,5000.06 466.887,4880.46 379.953,4751.84 305.313,4616.3 230.934,4481.2 169.891,4338.62 121.813,4192.13 97.1172,4116.94 76.5977,4040.42 59.375,3963.2 c -1.9805,-8.89 -3.9062,-17.78 -5.7695,-26.66 -1.0196,-1.39 -2.0352,-2.77 -3.0586,-4.15 -3.2344,-19.61 -8.086,-38.89 -12.8047,-58.27 -1.0625,-4.33 -2.0781,-8.69 -3.1016,-13.05 1.9688,2.6 3.9414,5.19 5.9024,7.8 C 32.4219,3823.26 25.5977,3777.44 19.7539,3731.5 9.88281,3653.9 4.13672,3575.89 1.34766,3497.74 -1.41406,3420.14 0.230469,3342.46 4.76172,3264.96 13.8633,3109.58 38.3086,2954.95 76.2813,2804.05 114.023,2654.07 167.184,2508.15 232.09,2367.86 c 130.445,-281.95 316.555,-537.96 541.113,-752.3 58.219,-55.57 119.324,-108.18 182.781,-157.77 -0.769,-1.03 -1.531,-2.08 -2.277,-3.13 -1.883,-2.67 -2.961,-5.81 -3.766,-8.93 -2.039,-7.82 2.493,-17.6 10.946,-19.31 1.941,-0.37 3.886,-0.76 5.867,-0.68 6.906,0.31 13.004,4.49 14.887,11.34 0.058,0.25 0.117,0.53 0.175,0.79 49.004,-37.28 99.334,-72.78 150.764,-106.47 65.58,-42.94 133.41,-82.4 202.75,-118.9 69.3,-36.49 140.64,-68.89 213.03,-98.74 285.67,-117.85 593.92,-178.471 902.65,-183.35 157.55,-2.488 315.12,10.988 470.34,37.801 153.42,26.519 304,68.479 449.55,123.599 143.84,54.45 282.28,122.57 413.59,202.58 130.67,79.62 253.6,172.19 367.6,274.15 225.95,202.12 413.5,447.04 552,716.53 69.92,135.98 126.55,278.84 170.33,425.32 45.03,150.59 74.22,305.59 90.11,461.89 7.86,77.4 11.71,155.29 11.42,233.09 -0.14,37.35 -0.62,74.68 -1.96,112" /><path
         id="path28"
         style="fill:none;stroke:#1a1817;stroke-width:7.5;stroke-linecap:round;stroke-linejoin:round;stroke-miterlimit:4;stroke-dasharray:none;stroke-opacity:1"
         d="m 3616.68,1273.01 c -0.65,-0.29 -1.31,-0.56 -1.96,-0.84" /><path
         id="path30"
         style="fill:none;stroke:#1a1817;stroke-width:7.5;stroke-linecap:round;stroke-linejoin:round;stroke-miterlimit:4;stroke-dasharray:none;stroke-opacity:1"
         d="m 1047.25,4876.76 c -0.01,-0.01 -0.01,-0.02 -0.02,-0.03" /><path
         id="path32"
         style="fill:#1a1817;fill-opacity:1;fill-rule:nonzero;stroke:none"
         d="M 2487.98,486.242 C 1272.04,486.242 284.852,377.301 284.852,243.121 284.852,108.93 1272.04,0 2487.98,0 c 1215.94,0 2203.13,108.93 2203.13,243.121 0,134.18 -987.19,243.121 -2203.13,243.121" /></g></g></svg>