<?xml version="1.0" standalone="no"?>
<!DOCTYPE svg PUBLIC "-//W3C//DTD SVG 20010904//EN"
 "http://www.w3.org/TR/2001/REC-SVG-20010904/DTD/svg10.dtd">
<svg version="1.0" xmlns="http://www.w3.org/2000/svg"
 width="740.000000pt" height="222.000000pt" viewBox="0 0 740.000000 222.000000"
 preserveAspectRatio="xMidYMid meet">
<metadata>
Created by potrace 1.16, written by Peter Selinger 2001-2019
</metadata>
<g transform="translate(0.000000,222.000000) scale(0.100000,-0.100000)"
fill="#000000" stroke="none">
<path d="M340 2210 l-345 -5 345 -5 345 -5 -345 -5 c-225 -4 -284 -6 -170 -8
1255 -16 1181 -16 1174 1 -3 10 -1 17 5 17 6 0 11 -7 11 -15 0 -13 40 -15 298
-15 163 0 1451 -7 2862 -15 1411 -8 2636 -15 2723 -15 l157 0 0 39 0 40 -3358
-2 c-1846 -1 -3512 -4 -3702 -7z m2027 -7 c-137 -2 -357 -2 -490 0 -133 1 -21
2 248 2 270 0 378 -1 242 -2z m3846 0 c-134 -2 -352 -2 -485 0 -134 1 -25 2
242 2 267 0 376 -1 243 -2z m-1926 -10 c-137 -2 -357 -2 -490 0 -133 1 -21 2
248 2 270 0 378 -1 242 -2z m-1924 -10 c-134 -2 -352 -2 -485 0 -134 1 -25 2
242 2 267 0 376 -1 243 -2z m3844 0 c-137 -2 -357 -2 -490 0 -133 1 -21 2 248
2 270 0 378 -1 242 -2z m-1920 -10 c-137 -2 -357 -2 -490 0 -133 1 -21 2 248
2 270 0 378 -1 242 -2z m1920 -10 c-137 -2 -357 -2 -490 0 -133 1 -21 2 248 2
270 0 378 -1 242 -2z"/>
<path d="M1295 2028 c-24 -13 -115 -99 -115 -109 0 -4 14 -10 30 -14 27 -6 30
-11 30 -44 0 -35 2 -38 25 -33 18 3 25 0 25 -12 0 -13 -12 -16 -65 -16 -64 0
-65 -1 -54 -21 9 -17 8 -23 -2 -30 -11 -6 -10 -9 4 -15 9 -3 17 -13 17 -21 0
-11 12 -13 63 -7 34 4 64 11 65 15 2 5 42 9 89 9 77 0 84 2 78 18 -4 9 -11 31
-15 47 -4 17 -8 24 -9 18 -1 -7 -11 -13 -22 -13 -17 0 -20 4 -15 23 3 12 6 28
6 35 0 6 11 12 25 12 16 0 25 6 25 15 0 8 5 15 11 15 6 0 17 6 24 14 11 11 7
19 -28 53 -23 22 -53 47 -67 57 -28 18 -95 21 -125 4z m116 -209 c-5 -41 -9
-64 -10 -52 0 12 -6 25 -11 28 -7 4 -9 -2 -4 -19 6 -24 4 -26 -26 -26 -29 0
-32 2 -26 25 5 18 3 23 -8 19 -9 -3 -15 4 -18 20 -4 18 -1 26 8 26 8 0 14 7
14 15 0 11 12 16 43 17 l42 1 -45 6 -45 5 45 6 c25 3 46 5 47 4 2 0 -1 -34 -6
-75z m52 64 c-7 -2 -19 -2 -25 0 -7 3 -2 5 12 5 14 0 19 -2 13 -5z m-163 -118
c0 -29 -12 -32 -36 -8 -15 16 -15 17 2 24 30 12 34 10 34 -16z m-62 -3 c3 -9
-3 -13 -19 -10 -12 1 -24 9 -27 16 -3 9 3 13 19 10 12 -1 24 -9 27 -16z m79
-4 c-3 -8 -6 -5 -6 6 -1 11 2 17 5 13 3 -3 4 -12 1 -19z m143 7 c0 -8 -9 -15
-20 -15 -11 0 -20 7 -20 15 0 8 9 15 20 15 11 0 20 -7 20 -15z"/>
<path d="M1237 1614 c-4 -4 -7 -25 -7 -46 0 -32 3 -38 21 -38 18 0 20 5 17 42
-3 39 -16 57 -31 42z"/>
<path d="M1226 1275 c-3 -9 -6 -30 -6 -46 0 -23 5 -29 21 -29 18 0 20 5 17 42
-3 43 -21 61 -32 33z"/>
<path d="M1146 1154 c-12 -31 -7 -43 17 -38 12 3 52 8 90 11 57 5 67 9 67 24
0 17 -9 19 -84 19 -67 0 -85 -3 -90 -16z"/>
<path d="M6750 693 c-25 -8 -58 -21 -75 -28 -16 -8 -90 -23 -164 -35 -74 -11
-137 -23 -140 -25 -2 -3 68 -5 156 -5 l161 0 6 -31 c8 -41 1 -49 -38 -49 -17
0 -36 -4 -41 -9 -12 -12 -89 -15 -175 -7 -36 3 -218 8 -404 11 l-339 5 24 -26
24 -26 344 7 c243 5 341 4 337 -4 -4 -6 -2 -19 4 -30 9 -17 6 -20 -22 -23 -39
-4 -44 -17 -18 -46 13 -14 38 -24 70 -28 28 -4 53 -10 56 -15 2 -5 19 -6 37
-4 28 4 29 4 7 -4 -14 -5 -152 -9 -307 -10 -176 -1 -284 -5 -288 -11 -8 -12
-86 -13 -137 -1 -21 5 -38 6 -38 1 0 -8 137 -40 171 -40 12 0 23 8 26 20 6 24
-17 23 403 9 271 -9 317 -12 334 -27 18 -16 19 -16 13 1 -4 9 -2 17 3 17 5 0
10 -10 10 -23 0 -12 3 -42 6 -67 5 -44 5 -46 -32 -66 l-37 -22 49 -6 c27 -3
168 -17 314 -31 146 -14 284 -27 308 -30 l42 -6 0 314 0 314 -82 -5 c-46 -2
-89 -9 -95 -14 -9 -7 -13 -7 -13 2 0 10 -33 11 -154 5 l-155 -7 -47 36 c-26
20 -50 35 -53 35 -3 -1 -26 -8 -51 -16z m60 -26 c0 -7 -49 -1 -56 6 -5 4 0 5
10 1 14 -5 17 -4 11 5 -6 10 -3 11 14 2 11 -7 21 -13 21 -14z m21 6 c13 -16
12 -17 -3 -4 -10 7 -18 15 -18 17 0 8 8 3 21 -13z m-314 -197 c3 -2 1 -11 -4
-19 -6 -11 -14 -9 -43 11 l-35 25 39 -6 c21 -4 41 -8 43 -11z m123 -11 c0 -13
-4 -14 -20 -5 -11 6 -20 13 -20 15 0 3 9 5 20 5 11 0 20 -7 20 -15z m80 -140
c0 -12 -14 -15 -65 -15 -80 0 -86 18 -7 23 31 2 60 4 65 5 4 1 7 -5 7 -13z"/>
<path d="M6925 699 c-11 -16 -1 -20 34 -13 23 5 29 9 19 15 -18 12 -46 11 -53
-2z"/>
<path d="M336 676 c-16 -18 -41 -28 -87 -36 -35 -6 -70 -11 -76 -11 -28 2 -41
1 -105 -11 l-68 -11 0 -234 0 -233 42 1 c24 0 297 -7 606 -16 433 -14 572 -15
600 -6 21 6 127 15 237 20 l200 8 -145 3 c-128 3 -137 4 -75 10 39 4 114 8
168 9 63 1 96 5 92 11 -4 6 19 10 62 11 148 1 14 19 -310 41 -332 23 -371 34
-137 38 84 2 220 15 180 18 -101 8 -509 46 -507 48 1 1 99 10 217 19 118 9
217 19 220 22 3 3 -33 3 -80 -1 -210 -15 -440 -19 -441 -7 -3 26 -4 30 -11 37
-18 17 -8 71 17 94 14 13 25 27 25 31 0 5 -28 9 -62 11 -62 3 -62 3 -23 11 76
16 69 20 -59 34 -70 7 -177 25 -238 38 -60 14 -113 23 -118 20 -5 -3 -14 3
-19 14 -8 15 -57 41 -78 41 -2 0 -14 -11 -27 -24z m497 -263 c-7 -2 -19 -2
-25 0 -7 3 -2 5 12 5 14 0 19 -2 13 -5z"/>
<path d="M1958 603 c-16 -2 -28 -9 -28 -15 0 -12 49 -2 65 13 6 6 6 8 0 8 -6
-1 -22 -4 -37 -6z"/>
<path d="M5370 515 c0 -3 7 -17 16 -30 14 -22 24 -25 75 -25 l59 0 -17 27 -17
26 28 -7 c18 -4 25 -3 21 4 -6 10 -165 15 -165 5z"/>
<path d="M5100 500 c20 -13 53 -13 45 0 -3 6 -18 10 -33 10 -21 0 -24 -2 -12
-10z"/>
<path d="M4325 449 l-40 -19 68 5 c76 5 101 14 71 26 -30 12 -56 9 -99 -12z"/>
<path d="M6600 93 c-14 -3 -92 -21 -175 -40 -82 -20 -166 -39 -185 -43 -19 -4
235 -7 565 -6 l600 1 -545 5 c-498 5 -538 6 -470 19 41 7 86 17 100 22 14 4
52 13 85 19 32 5 64 15 69 20 11 11 2 11 -44 3z"/>
</g>
</svg>
