<?xml version="1.0" standalone="no"?>
<svg xmlns:xlink="http://www.w3.org/1999/xlink" id="wave" style="transform:rotate(0deg); transition: 0.3s" viewBox="0 0 1440 130" version="1.1" xmlns="http://www.w3.org/2000/svg"><defs><linearGradient id="sw-gradient-0" x1="0" x2="0" y1="1" y2="0"><stop stop-color="rgba(72.869, 87.596, 123.316, 1)" offset="0%"/><stop stop-color="rgba(59.808, 2.167, 232.602, 1)" offset="100%"/></linearGradient></defs><path style="transform:translate(0, 0px); opacity:1" fill="url(#sw-gradient-0)" d="M0,117L26.7,104C53.3,91,107,65,160,60.7C213.3,56,267,74,320,82.3C373.3,91,427,91,480,75.8C533.3,61,587,30,640,32.5C693.3,35,747,69,800,82.3C853.3,95,907,87,960,75.8C1013.3,65,1067,52,1120,47.7C1173.3,43,1227,48,1280,60.7C1333.3,74,1387,95,1440,86.7C1493.3,78,1547,39,1600,36.8C1653.3,35,1707,69,1760,84.5C1813.3,100,1867,95,1920,93.2C1973.3,91,2027,91,2080,95.3C2133.3,100,2187,108,2240,110.5C2293.3,113,2347,108,2400,99.7C2453.3,91,2507,78,2560,71.5C2613.3,65,2667,65,2720,65C2773.3,65,2827,65,2880,56.3C2933.3,48,2987,30,3040,39C3093.3,48,3147,82,3200,93.2C3253.3,104,3307,91,3360,73.7C3413.3,56,3467,35,3520,36.8C3573.3,39,3627,65,3680,78C3733.3,91,3787,91,3813,91L3840,91L3840,130L3813.3,130C3786.7,130,3733,130,3680,130C3626.7,130,3573,130,3520,130C3466.7,130,3413,130,3360,130C3306.7,130,3253,130,3200,130C3146.7,130,3093,130,3040,130C2986.7,130,2933,130,2880,130C2826.7,130,2773,130,2720,130C2666.7,130,2613,130,2560,130C2506.7,130,2453,130,2400,130C2346.7,130,2293,130,2240,130C2186.7,130,2133,130,2080,130C2026.7,130,1973,130,1920,130C1866.7,130,1813,130,1760,130C1706.7,130,1653,130,1600,130C1546.7,130,1493,130,1440,130C1386.7,130,1333,130,1280,130C1226.7,130,1173,130,1120,130C1066.7,130,1013,130,960,130C906.7,130,853,130,800,130C746.7,130,693,130,640,130C586.7,130,533,130,480,130C426.7,130,373,130,320,130C266.7,130,213,130,160,130C106.7,130,53,130,27,130L0,130Z"/></svg>