<?xml version="1.0" encoding="UTF-8" standalone="no"?>
<svg
   id="wave"
   viewBox="0 0 1828 140"
   version="1.1"
   sodipodi:docname="waves.svg"
   width="1828"
   height="140"
   inkscape:version="1.1.1 (3bf5ae0d25, 2021-09-20)"
   xmlns:inkscape="http://www.inkscape.org/namespaces/inkscape"
   xmlns:sodipodi="http://sodipodi.sourceforge.net/DTD/sodipodi-0.dtd"
   xmlns="http://www.w3.org/2000/svg"
   xmlns:svg="http://www.w3.org/2000/svg">
  <sodipodi:namedview
     id="namedview12"
     pagecolor="#ffffff"
     bordercolor="#111111"
     borderopacity="1"
     inkscape:pageshadow="0"
     inkscape:pageopacity="0"
     inkscape:pagecheckerboard="1"
     showgrid="false"
     inkscape:zoom="0.39201389"
     inkscape:cx="1057.3605"
     inkscape:cy="65.048716"
     inkscape:window-width="1536"
     inkscape:window-height="793"
     inkscape:window-x="-8"
     inkscape:window-y="-8"
     inkscape:window-maximized="1"
     inkscape:current-layer="wave" />
  <defs
     id="defs7">
    <linearGradient
       id="sw-gradient-0"
       x1="0"
       x2="0"
       y1="482.80643"
       y2="133.13431"
       gradientTransform="matrix(3.2501061,0,0,0.15602308,-8.0600813,31.807403)"
       gradientUnits="userSpaceOnUse">
      <stop
         stop-color="rgba(72.869, 87.596, 123.316, 1)"
         offset="0%"
         id="stop2" />
      <stop
         stop-color="rgba(59.808, 2.167, 232.602, 1)"
         offset="100%"
         id="stop4" />
    </linearGradient>
    <clipPath
       clipPathUnits="userSpaceOnUse"
       id="clipPath853">
      <rect
         style="opacity:0.988372;fill:#e2d410;fill-opacity:0.134658;stroke:#e3dbdb;stroke-width:3.40157"
         id="rect855"
         width="1438.7245"
         height="94.384415"
         x="0"
         y="22.95837" />
    </clipPath>
  </defs>
  <path
     style="opacity:1;fill:url(#sw-gradient-0)"
     fill="url(#sw-gradient-0)"
     d="M 0,117 26.7,104 C 53.3,91 107,65 160,60.7 213.3,56 267,74 320,82.3 373.3,91 427,91 480,75.8 533.3,61 587,30 640,32.5 693.3,35 747,69 800,82.3 853.3,95 907,87 960,75.8 1013.3,65 1067,52 1120,47.7 c 53.3,-4.7 107,0.3 160,13 53.3,13.3 107,34.3 160,26 53.3,-8.7 107,-47.7 160,-49.9 53.3,-1.8 107,32.2 160,47.7 53.3,15.5 107,10.5 160,8.7 53.3,-2.2 107,-2.2 160,2.1 53.3,4.7 107,12.7 160,15.2 53.3,2.5 107,-2.5 160,-10.8 53.3,-8.7 107,-21.7 160,-28.2 53.3,-6.5 107,-6.5 160,-6.5 53.3,0 107,0 160,-8.7 53.3,-8.3 107,-26.3 160,-17.3 53.3,9 107,43 160,54.2 53.3,10.8 107,-2.2 160,-19.5 53.3,-17.7 107,-38.7 160,-36.9 53.3,2.2 107,28.2 160,41.2 53.3,13 107,13 133,13 h 27 v 39 h -26.7 c -26.6,0 -80.3,0 -133.3,0 -53.3,0 -107,0 -160,0 -53.3,0 -107,0 -160,0 -53.3,0 -107,0 -160,0 -53.3,0 -107,0 -160,0 -53.3,0 -107,0 -160,0 -53.3,0 -107,0 -160,0 -53.3,0 -107,0 -160,0 -53.3,0 -107,0 -160,0 -53.3,0 -107,0 -160,0 -53.3,0 -107,0 -160,0 -53.3,0 -107,0 -160,0 -53.3,0 -107,0 -160,0 -53.3,0 -107,0 -160,0 -53.3,0 -107,0 -160,0 -53.3,0 -107,0 -160,0 -53.3,0 -107,0 -160,0 -53.3,0 -107,0 -160,0 -53.3,0 -107,0 -160,0 -53.3,0 -107,0 -160,0 -53.3,0 -107,0 -160,0 -53.3,0 -107,0 -160,0 -53.3,0 -107,0 -160,0 -53.3,0 -107,0 -133,0 H 0 Z"
     id="path9"
     clip-path="url(#clipPath853)"
     transform="matrix(1.2659575,0,0,1.5577383,10.20372,-49.547609)" />
</svg>
